<?xml version="1.0" encoding="utf-8"?>
<!-- Generator: Adobe Illustrator 16.0.3, SVG Export Plug-In . SVG Version: 6.00 Build 0)  -->
<!DOCTYPE svg PUBLIC "-//W3C//DTD SVG 1.1//EN" "http://www.w3.org/Graphics/SVG/1.1/DTD/svg11.dtd">
<svg version="1.1" id="Capa_1" xmlns="http://www.w3.org/2000/svg" xmlns:xlink="http://www.w3.org/1999/xlink" x="0px" y="0px"
	 width="500px" height="500px" viewBox="0 0 500 500" enable-background="new 0 0 500 500" xml:space="preserve">
<path d="M256.75,295.75c-3.75,6.75-20.35,22.211-43.95,22.211c-41,0-70.999-31.199-70.999-72.599c0-41.199,31-72.599,70.599-72.599
	c21,0,36,8.6,43.399,14.6l-5.2,14.4c-5.4-4.4-19.2-13.8-37.799-13.8c-31,0-54.199,24.799-54.199,57.399
	c0,32.599,22.2,57.4,54.599,57.4c21.2,0,43.749-17.512,48.55-21.512L256.75,295.75z"/>
<path d="M172.25,285.25c3.945,10.785,17.644,17.559,36.745,17.559c15.364,0,39.005-8.477,39.005-23.059
	c0-34.96-80.735-26.084-80.735-71.229c0-19.976,15.779-35.757,41.524-35.757c25.951,0,40.069,7.848,43.599,17.237l-7.396,7.726
	c-3.323-6.992-23.242-9.976-36.412-10.18c-16.006-0.248-24.498,9.389-24.498,20.975c0,31.961,77.667,26.982,77.667,71.729
	c0,21.973-26.18,37.541-53.376,37.541c-28.236,0-40.901-17.381-45.467-30.766L172.25,285.25z"/>
</svg>
